<svg xmlns="http://www.w3.org/2000/svg" viewBox="0 0 320 90" role="img" aria-labelledby="title desc">
  <title id="title">Amazonia</title>
  <desc id="desc">Logo de Amazonia viviendas industrializadas</desc>
  <defs>
    <linearGradient id="leaf" x1="0%" y1="0%" x2="100%" y2="100%">
      <stop offset="0%" stop-color="#f2ca99" />
      <stop offset="100%" stop-color="#c8893c" />
    </linearGradient>
  </defs>
  <g transform="translate(10 8)">
    <rect width="70" height="74" rx="14" fill="#172a49" />
    <path d="M35 18c10.5 0 19 8.5 19 19 0 10.5-8.5 19-19 19-3.8 0-7.4-1.1-10.4-3l-6.2 6.2a2.5 2.5 0 0 1-3.6-3.5l6-6.2A18.9 18.9 0 0 1 16 37c0-10.5 8.5-19 19-19zm8.2 10.3a2.5 2.5 0 0 0-3.5 0L29 39l-4-4a2.5 2.5 0 1 0-3.5 3.5l5.8 5.7c1 .9 2.7.9 3.6 0l12.4-12.4a2.5 2.5 0 0 0 0-3.5z" fill="url(#leaf)" />
  </g>
  <g transform="translate(95 20)" fill="#172a49">
    <text x="0" y="28" font-size="30" font-weight="700" font-family="Outfit, 'Helvetica Neue', Arial, sans-serif" letter-spacing="0.02em">Amazonia</text>
    <text x="0" y="52" font-size="14" font-weight="500" font-family="Outfit, 'Helvetica Neue', Arial, sans-serif" fill="#7d8a9e" letter-spacing="0.08em">VIVIENDAS INDUSTRIALIZADAS</text>
  </g>
</svg>
